<svg width="492" height="142" viewBox="0 0 492 142" fill="none" xmlns="http://www.w3.org/2000/svg">
<rect y="18" width="104" height="104" rx="30" fill="white"/>
<g clip-path="url(#clip0_2099_21)">
<path d="M77.8904 48.6458C75.1631 51.2287 71.8254 56.0548 69.6394 64.9733C69.6394 64.9733 67.4413 72.3643 65.6582 76.2432C65.4087 76.7844 65.1741 77.3287 64.9636 77.885C64.699 78.5856 64.1728 79.7132 63.2467 80.7325C62.5461 81.4993 61.641 82.0676 60.6217 82.2871C59.1573 82.5998 57.0104 82.3683 55.5761 79.1539C55.4889 78.9584 55.3987 78.766 55.2994 78.5766C54.9326 77.897 53.8802 75.6809 53.2668 71.6547C53.0593 70.2895 52.7796 68.9394 52.3918 67.6134L52.3557 67.4931C52.1181 66.6812 50.9755 66.6662 50.7229 67.475C49.6284 70.9841 47.5476 78.1135 45.954 86.2803C45.6442 87.8649 44.8654 89.3413 43.6446 90.3967C43.5484 90.4809 43.4492 90.5621 43.344 90.6433C43.344 90.6433 39.8229 93.2022 36.6987 89.1459C35.8207 88.0092 35.2584 86.6591 34.9968 85.2489C34.5487 82.8344 32.8468 77.5542 26.4722 76.9679C26.4722 76.9679 30.4293 74.2947 35.1862 76.4477C35.1862 76.4477 39.432 78.333 40.6377 82.8945C40.6377 82.8945 41.3534 79.4726 42.2254 76.2252C42.7726 74.1895 43.2808 72.1448 43.7529 70.0911C44.7331 65.8303 46.7117 58.6317 49.3488 56.2112C49.46 56.1089 49.5773 56.0127 49.6915 55.9075C50.2508 55.3873 53.1735 52.9908 55.6512 56.9749C56.1775 57.8199 56.5293 58.761 56.7397 59.7353C57.0976 61.3891 57.5306 64.5403 57.9756 67.015C57.9756 67.015 58.3003 69.4235 59.8729 73.9128C59.8729 73.9128 62.2815 68.4974 64.2239 61.1365C64.2239 61.1365 68.0006 49.2261 75.2774 45.9395C69.2966 40.3918 61.2952 37 52.5 37C33.9985 37 19 51.9985 19 70.5C19 89.0015 33.9985 104 52.5 104C71.0015 104 86 89.0015 86 70.5C86 62.1498 82.945 54.5123 77.8904 48.6458Z" fill="#1566C0"/>
</g>
<path d="M211.919 32.4L195.439 88H185.119L173.439 45.92L161.039 88L150.799 88.08L135.039 32.4H144.719L156.239 77.68L168.719 32.4H178.959L190.559 77.44L202.159 32.4H211.919ZM259.841 64.88C259.841 66.5333 259.734 68.0267 259.521 69.36H225.841C226.108 72.88 227.414 75.7067 229.761 77.84C232.108 79.9733 234.988 81.04 238.401 81.04C243.308 81.04 246.774 78.9867 248.801 74.88H258.641C257.308 78.9333 254.881 82.2667 251.361 84.88C247.894 87.44 243.574 88.72 238.401 88.72C234.188 88.72 230.401 87.7867 227.041 85.92C223.734 84 221.121 81.3333 219.201 77.92C217.334 74.4533 216.401 70.4533 216.401 65.92C216.401 61.3867 217.308 57.4133 219.121 54C220.988 50.5333 223.574 47.8667 226.881 46C230.241 44.1333 234.081 43.2 238.401 43.2C242.561 43.2 246.268 44.1067 249.521 45.92C252.774 47.7333 255.308 50.2933 257.121 53.6C258.934 56.8533 259.841 60.6133 259.841 64.88ZM250.321 62C250.268 58.64 249.068 55.9467 246.721 53.92C244.374 51.8933 241.468 50.88 238.001 50.88C234.854 50.88 232.161 51.8933 229.921 53.92C227.681 55.8933 226.348 58.5867 225.921 62H250.321ZM277.936 50.48C279.483 48.3467 281.589 46.6133 284.256 45.28C286.976 43.8933 289.989 43.2 293.296 43.2C297.189 43.2 300.709 44.1333 303.856 46C307.003 47.8667 309.483 50.5333 311.296 54C313.109 57.4133 314.016 61.3333 314.016 65.76C314.016 70.1867 313.109 74.16 311.296 77.68C309.483 81.1467 306.976 83.8667 303.776 85.84C300.629 87.76 297.136 88.72 293.296 88.72C289.883 88.72 286.843 88.0533 284.176 86.72C281.563 85.3867 279.483 83.68 277.936 81.6V88H268.816V28.8H277.936V50.48ZM304.736 65.76C304.736 62.72 304.096 60.1067 302.816 57.92C301.589 55.68 299.936 54 297.856 52.88C295.829 51.7067 293.643 51.12 291.296 51.12C289.003 51.12 286.816 51.7067 284.736 52.88C282.709 54.0533 281.056 55.76 279.776 58C278.549 60.24 277.936 62.88 277.936 65.92C277.936 68.96 278.549 71.6267 279.776 73.92C281.056 76.16 282.709 77.8667 284.736 79.04C286.816 80.2133 289.003 80.8 291.296 80.8C293.643 80.8 295.829 80.2133 297.856 79.04C299.936 77.8133 301.589 76.0533 302.816 73.76C304.096 71.4667 304.736 68.8 304.736 65.76ZM332.155 50.48C333.702 48.3467 335.808 46.6133 338.475 45.28C341.195 43.8933 344.208 43.2 347.515 43.2C351.408 43.2 354.928 44.1333 358.075 46C361.222 47.8667 363.702 50.5333 365.515 54C367.328 57.4133 368.235 61.3333 368.235 65.76C368.235 70.1867 367.328 74.16 365.515 77.68C363.702 81.1467 361.195 83.8667 357.995 85.84C354.848 87.76 351.355 88.72 347.515 88.72C344.102 88.72 341.062 88.0533 338.395 86.72C335.782 85.3867 333.702 83.68 332.155 81.6V88H323.035V28.8H332.155V50.48ZM358.955 65.76C358.955 62.72 358.315 60.1067 357.035 57.92C355.808 55.68 354.155 54 352.075 52.88C350.048 51.7067 347.862 51.12 345.515 51.12C343.222 51.12 341.035 51.7067 338.955 52.88C336.928 54.0533 335.275 55.76 333.995 58C332.768 60.24 332.155 62.88 332.155 65.92C332.155 68.96 332.768 71.6267 333.995 73.92C335.275 76.16 336.928 77.8667 338.955 79.04C341.035 80.2133 343.222 80.8 345.515 80.8C347.862 80.8 350.048 80.2133 352.075 79.04C354.155 77.8133 355.808 76.0533 357.035 73.76C358.315 71.4667 358.955 68.8 358.955 65.76ZM393.254 88.72C389.787 88.72 386.667 88.1067 383.894 86.88C381.174 85.6 379.014 83.8933 377.414 81.76C375.814 79.5733 374.96 77.1467 374.854 74.48H384.294C384.454 76.3467 385.334 77.92 386.934 79.2C388.587 80.4267 390.64 81.04 393.094 81.04C395.654 81.04 397.627 80.56 399.014 79.6C400.454 78.5867 401.174 77.3067 401.174 75.76C401.174 74.1067 400.374 72.88 398.774 72.08C397.227 71.28 394.747 70.4 391.334 69.44C388.027 68.5333 385.334 67.6533 383.254 66.8C381.174 65.9467 379.36 64.64 377.814 62.88C376.32 61.12 375.574 58.8 375.574 55.92C375.574 53.5733 376.267 51.44 377.654 49.52C379.04 47.5467 381.014 46 383.574 44.88C386.187 43.76 389.174 43.2 392.534 43.2C397.547 43.2 401.574 44.48 404.614 47.04C407.707 49.5467 409.36 52.9867 409.574 57.36H400.454C400.294 55.3867 399.494 53.8133 398.054 52.64C396.614 51.4667 394.667 50.88 392.214 50.88C389.814 50.88 387.974 51.3333 386.694 52.24C385.414 53.1467 384.774 54.3467 384.774 55.84C384.774 57.0133 385.2 58 386.054 58.8C386.907 59.6 387.947 60.24 389.174 60.72C390.4 61.1467 392.214 61.7067 394.614 62.4C397.814 63.2533 400.427 64.1333 402.454 65.04C404.534 65.8933 406.32 67.1733 407.814 68.88C409.307 70.5867 410.08 72.8533 410.134 75.68C410.134 78.1867 409.44 80.4267 408.054 82.4C406.667 84.3733 404.694 85.92 402.134 87.04C399.627 88.16 396.667 88.72 393.254 88.72ZM453.508 76.64H430.228L426.228 88H416.708L436.628 32.32H447.188L467.108 88H457.508L453.508 76.64ZM450.948 69.2L441.908 43.36L432.788 69.2H450.948ZM484.889 32.4V88H475.769V32.4H484.889Z" fill="white"/>
<path d="M148.339 125.74H139.609L138.109 130H134.539L142.009 109.12H145.969L153.439 130H149.839L148.339 125.74ZM147.379 122.95L143.989 113.26L140.569 122.95H147.379ZM155.547 121.72C155.547 120.02 155.887 118.53 156.567 117.25C157.267 115.95 158.227 114.95 159.447 114.25C160.667 113.55 162.067 113.2 163.647 113.2C165.647 113.2 167.297 113.68 168.597 114.64C169.917 115.58 170.807 116.93 171.267 118.69H167.577C167.277 117.87 166.797 117.23 166.137 116.77C165.477 116.31 164.647 116.08 163.647 116.08C162.247 116.08 161.127 116.58 160.287 117.58C159.467 118.56 159.057 119.94 159.057 121.72C159.057 123.5 159.467 124.89 160.287 125.89C161.127 126.89 162.247 127.39 163.647 127.39C165.627 127.39 166.937 126.52 167.577 124.78H171.267C170.787 126.46 169.887 127.8 168.567 128.8C167.247 129.78 165.607 130.27 163.647 130.27C162.067 130.27 160.667 129.92 159.447 129.22C158.227 128.5 157.267 127.5 156.567 126.22C155.887 124.92 155.547 123.42 155.547 121.72ZM173.536 121.66C173.536 120 173.876 118.53 174.556 117.25C175.256 115.97 176.196 114.98 177.376 114.28C178.576 113.56 179.896 113.2 181.336 113.2C182.636 113.2 183.766 113.46 184.726 113.98C185.706 114.48 186.486 115.11 187.066 115.87V113.47H190.516V130H187.066V127.54C186.486 128.32 185.696 128.97 184.696 129.49C183.696 130.01 182.556 130.27 181.276 130.27C179.856 130.27 178.556 129.91 177.376 129.19C176.196 128.45 175.256 127.43 174.556 126.13C173.876 124.81 173.536 123.32 173.536 121.66ZM187.066 121.72C187.066 120.58 186.826 119.59 186.346 118.75C185.886 117.91 185.276 117.27 184.516 116.83C183.756 116.39 182.936 116.17 182.056 116.17C181.176 116.17 180.356 116.39 179.596 116.83C178.836 117.25 178.216 117.88 177.736 118.72C177.276 119.54 177.046 120.52 177.046 121.66C177.046 122.8 177.276 123.8 177.736 124.66C178.216 125.52 178.836 126.18 179.596 126.64C180.376 127.08 181.196 127.3 182.056 127.3C182.936 127.3 183.756 127.08 184.516 126.64C185.276 126.2 185.886 125.56 186.346 124.72C186.826 123.86 187.066 122.86 187.066 121.72ZM193.868 121.66C193.868 120 194.208 118.53 194.888 117.25C195.588 115.97 196.528 114.98 197.708 114.28C198.908 113.56 200.238 113.2 201.698 113.2C202.778 113.2 203.838 113.44 204.878 113.92C205.938 114.38 206.778 115 207.398 115.78V107.8H210.848V130H207.398V127.51C206.838 128.31 206.058 128.97 205.058 129.49C204.078 130.01 202.948 130.27 201.668 130.27C200.228 130.27 198.908 129.91 197.708 129.19C196.528 128.45 195.588 127.43 194.888 126.13C194.208 124.81 193.868 123.32 193.868 121.66ZM207.398 121.72C207.398 120.58 207.158 119.59 206.678 118.75C206.218 117.91 205.608 117.27 204.848 116.83C204.088 116.39 203.268 116.17 202.388 116.17C201.508 116.17 200.688 116.39 199.928 116.83C199.168 117.25 198.548 117.88 198.068 118.72C197.608 119.54 197.378 120.52 197.378 121.66C197.378 122.8 197.608 123.8 198.068 124.66C198.548 125.52 199.168 126.18 199.928 126.64C200.708 127.08 201.528 127.3 202.388 127.3C203.268 127.3 204.088 127.08 204.848 126.64C205.608 126.2 206.218 125.56 206.678 124.72C207.158 123.86 207.398 122.86 207.398 121.72ZM230.49 121.33C230.49 121.95 230.45 122.51 230.37 123.01H217.74C217.84 124.33 218.33 125.39 219.21 126.19C220.09 126.99 221.17 127.39 222.45 127.39C224.29 127.39 225.59 126.62 226.35 125.08H230.04C229.54 126.6 228.63 127.85 227.31 128.83C226.01 129.79 224.39 130.27 222.45 130.27C220.87 130.27 219.45 129.92 218.19 129.22C216.95 128.5 215.97 127.5 215.25 126.22C214.55 124.92 214.2 123.42 214.2 121.72C214.2 120.02 214.54 118.53 215.22 117.25C215.92 115.95 216.89 114.95 218.13 114.25C219.39 113.55 220.83 113.2 222.45 113.2C224.01 113.2 225.4 113.54 226.62 114.22C227.84 114.9 228.79 115.86 229.47 117.1C230.15 118.32 230.49 119.73 230.49 121.33ZM226.92 120.25C226.9 118.99 226.45 117.98 225.57 117.22C224.69 116.46 223.6 116.08 222.3 116.08C221.12 116.08 220.11 116.46 219.27 117.22C218.43 117.96 217.93 118.97 217.77 120.25H226.92ZM253.865 113.2C255.165 113.2 256.325 113.47 257.345 114.01C258.385 114.55 259.195 115.35 259.775 116.41C260.375 117.47 260.675 118.75 260.675 120.25V130H257.285V120.76C257.285 119.28 256.915 118.15 256.175 117.37C255.435 116.57 254.425 116.17 253.145 116.17C251.865 116.17 250.845 116.57 250.085 117.37C249.345 118.15 248.975 119.28 248.975 120.76V130H245.585V120.76C245.585 119.28 245.215 118.15 244.475 117.37C243.735 116.57 242.725 116.17 241.445 116.17C240.165 116.17 239.145 116.57 238.385 117.37C237.645 118.15 237.275 119.28 237.275 120.76V130H233.855V113.47H237.275V115.36C237.835 114.68 238.545 114.15 239.405 113.77C240.265 113.39 241.185 113.2 242.165 113.2C243.485 113.2 244.665 113.48 245.705 114.04C246.745 114.6 247.545 115.41 248.105 116.47C248.605 115.47 249.385 114.68 250.445 114.1C251.505 113.5 252.645 113.2 253.865 113.2ZM279.907 113.47L269.767 137.77H266.227L269.587 129.73L263.077 113.47H266.887L271.537 126.07L276.367 113.47H279.907Z" fill="white"/>
<g clip-path="url(#clip1_2099_21)">
<path d="M133.778 14.5096L118.41 25.9121L138.104 29.5792L145.129 23.1231L136.759 22.9794C136.622 23.1009 136.46 23.1903 136.284 23.2411C135.971 23.331 135.635 23.2928 135.351 23.135C135.066 22.9773 134.855 22.7128 134.765 22.3999C134.676 22.0869 134.714 21.7511 134.872 21.4662C135.029 21.1814 135.294 20.9709 135.607 20.8811L135.594 21.5715L137.082 21.5997C137.082 21.601 137.083 21.6023 137.083 21.6036L139.278 21.6414L151.779 21.878L152.036 22.7738C151.908 22.9275 151.82 23.1101 151.779 23.3057C151.738 23.5014 151.745 23.7041 151.8 23.8963C151.856 24.0928 151.961 24.272 152.105 24.4177C152.248 24.5634 152.426 24.671 152.621 24.7306C152.667 26.9148 153.988 31.5209 154.51 33.3365C155.91 33.7644 155.918 33.7924 156.87 32.659C156.349 30.8436 155.026 26.2388 153.906 24.3625C154.04 24.2081 154.134 24.0226 154.178 23.8228C154.222 23.6231 154.216 23.4154 154.16 23.2187C154.104 23.0264 154.003 22.8504 153.864 22.7062C153.725 22.562 153.554 22.454 153.363 22.3914L152.825 20.5166L148.063 20.4265L152.854 16.0241L133.778 14.5096ZM127.094 29.1523L127.793 35.2374C129.796 34.9357 132.428 35.3948 134.932 36.1122C136.355 36.5203 137.724 37.0239 138.873 37.5639C139.576 37.894 140.18 38.2305 140.689 38.5863C140.932 38.0146 141.266 37.4086 141.687 36.7563C142.374 35.6889 143.267 34.536 144.258 33.4348C146 31.4986 147.987 29.7136 149.845 28.907L147.21 23.3776L146.749 23.51L138.53 31.0635L127.555 29.02L127.094 29.1523Z" fill="white"/>
</g>
<defs>
<clipPath id="clip0_2099_21">
<rect width="67" height="67" fill="white" transform="translate(19 37)"/>
</clipPath>
<clipPath id="clip1_2099_21">
<rect width="39.2861" height="39.2861" fill="white" transform="translate(113 13.3208) rotate(-16.0172)"/>
</clipPath>
</defs>
</svg>
