<svg width="492" height="142" viewBox="0 0 492 142" fill="none" xmlns="http://www.w3.org/2000/svg">
<rect y="19" width="104" height="104" rx="30" fill="#1566C0"/>
<g clip-path="url(#clip0_2099_20)">
<path d="M77.8904 48.6458C75.1631 51.2287 71.8254 56.0548 69.6394 64.9733C69.6394 64.9733 67.4413 72.3643 65.6582 76.2432C65.4087 76.7844 65.1741 77.3287 64.9636 77.885C64.699 78.5856 64.1728 79.7132 63.2467 80.7325C62.5461 81.4993 61.641 82.0676 60.6217 82.2871C59.1573 82.5998 57.0104 82.3683 55.5761 79.1539C55.4889 78.9584 55.3987 78.766 55.2994 78.5766C54.9326 77.897 53.8802 75.6809 53.2668 71.6547C53.0593 70.2895 52.7796 68.9394 52.3918 67.6134L52.3557 67.4931C52.1181 66.6812 50.9755 66.6662 50.7229 67.475C49.6284 70.9841 47.5476 78.1135 45.954 86.2803C45.6442 87.8649 44.8654 89.3413 43.6446 90.3967C43.5484 90.4809 43.4492 90.5621 43.344 90.6433C43.344 90.6433 39.8229 93.2022 36.6987 89.1459C35.8207 88.0092 35.2584 86.6591 34.9968 85.2489C34.5487 82.8344 32.8468 77.5542 26.4722 76.9679C26.4722 76.9679 30.4293 74.2947 35.1862 76.4477C35.1862 76.4477 39.432 78.333 40.6377 82.8945C40.6377 82.8945 41.3534 79.4726 42.2254 76.2252C42.7726 74.1895 43.2808 72.1448 43.7529 70.0911C44.7331 65.8303 46.7117 58.6317 49.3488 56.2112C49.46 56.1089 49.5773 56.0127 49.6915 55.9075C50.2508 55.3873 53.1735 52.9908 55.6512 56.9749C56.1775 57.8199 56.5293 58.761 56.7397 59.7353C57.0976 61.3891 57.5306 64.5403 57.9756 67.015C57.9756 67.015 58.3003 69.4235 59.8729 73.9128C59.8729 73.9128 62.2815 68.4974 64.2239 61.1365C64.2239 61.1365 68.0006 49.2261 75.2774 45.9395C69.2966 40.3918 61.2952 37 52.5 37C33.9985 37 19 51.9985 19 70.5C19 89.0015 33.9985 104 52.5 104C71.0015 104 86 89.0015 86 70.5C86 62.1498 82.945 54.5123 77.8904 48.6458Z" fill="white"/>
</g>
<path d="M212.4 32.4L195.92 88H185.6L173.92 45.92L161.52 88L151.28 88.08L135.52 32.4H145.2L156.72 77.68L169.2 32.4H179.44L191.04 77.44L202.64 32.4H212.4ZM260.322 64.88C260.322 66.5333 260.215 68.0267 260.002 69.36H226.322C226.589 72.88 227.895 75.7067 230.242 77.84C232.589 79.9733 235.469 81.04 238.882 81.04C243.789 81.04 247.255 78.9867 249.282 74.88H259.122C257.789 78.9333 255.362 82.2667 251.842 84.88C248.375 87.44 244.055 88.72 238.882 88.72C234.669 88.72 230.882 87.7867 227.522 85.92C224.215 84 221.602 81.3333 219.682 77.92C217.815 74.4533 216.882 70.4533 216.882 65.92C216.882 61.3867 217.789 57.4133 219.602 54C221.469 50.5333 224.055 47.8667 227.362 46C230.722 44.1333 234.562 43.2 238.882 43.2C243.042 43.2 246.749 44.1067 250.002 45.92C253.255 47.7333 255.789 50.2933 257.602 53.6C259.415 56.8533 260.322 60.6133 260.322 64.88ZM250.802 62C250.749 58.64 249.549 55.9467 247.202 53.92C244.855 51.8933 241.949 50.88 238.482 50.88C235.335 50.88 232.642 51.8933 230.402 53.92C228.162 55.8933 226.829 58.5867 226.402 62H250.802ZM278.417 50.48C279.964 48.3467 282.07 46.6133 284.737 45.28C287.457 43.8933 290.47 43.2 293.777 43.2C297.67 43.2 301.19 44.1333 304.337 46C307.484 47.8667 309.964 50.5333 311.777 54C313.59 57.4133 314.497 61.3333 314.497 65.76C314.497 70.1867 313.59 74.16 311.777 77.68C309.964 81.1467 307.457 83.8667 304.257 85.84C301.11 87.76 297.617 88.72 293.777 88.72C290.364 88.72 287.324 88.0533 284.657 86.72C282.044 85.3867 279.964 83.68 278.417 81.6V88H269.297V28.8H278.417V50.48ZM305.217 65.76C305.217 62.72 304.577 60.1067 303.297 57.92C302.07 55.68 300.417 54 298.337 52.88C296.31 51.7067 294.124 51.12 291.777 51.12C289.484 51.12 287.297 51.7067 285.217 52.88C283.19 54.0533 281.537 55.76 280.257 58C279.03 60.24 278.417 62.88 278.417 65.92C278.417 68.96 279.03 71.6267 280.257 73.92C281.537 76.16 283.19 77.8667 285.217 79.04C287.297 80.2133 289.484 80.8 291.777 80.8C294.124 80.8 296.31 80.2133 298.337 79.04C300.417 77.8133 302.07 76.0533 303.297 73.76C304.577 71.4667 305.217 68.8 305.217 65.76ZM332.636 50.48C334.182 48.3467 336.289 46.6133 338.956 45.28C341.676 43.8933 344.689 43.2 347.996 43.2C351.889 43.2 355.409 44.1333 358.556 46C361.702 47.8667 364.182 50.5333 365.996 54C367.809 57.4133 368.716 61.3333 368.716 65.76C368.716 70.1867 367.809 74.16 365.996 77.68C364.182 81.1467 361.676 83.8667 358.476 85.84C355.329 87.76 351.836 88.72 347.996 88.72C344.582 88.72 341.542 88.0533 338.876 86.72C336.262 85.3867 334.182 83.68 332.636 81.6V88H323.516V28.8H332.636V50.48ZM359.436 65.76C359.436 62.72 358.796 60.1067 357.516 57.92C356.289 55.68 354.636 54 352.556 52.88C350.529 51.7067 348.342 51.12 345.996 51.12C343.702 51.12 341.516 51.7067 339.436 52.88C337.409 54.0533 335.756 55.76 334.476 58C333.249 60.24 332.636 62.88 332.636 65.92C332.636 68.96 333.249 71.6267 334.476 73.92C335.756 76.16 337.409 77.8667 339.436 79.04C341.516 80.2133 343.702 80.8 345.996 80.8C348.342 80.8 350.529 80.2133 352.556 79.04C354.636 77.8133 356.289 76.0533 357.516 73.76C358.796 71.4667 359.436 68.8 359.436 65.76ZM393.734 88.72C390.268 88.72 387.148 88.1067 384.374 86.88C381.654 85.6 379.494 83.8933 377.894 81.76C376.294 79.5733 375.441 77.1467 375.334 74.48H384.774C384.934 76.3467 385.814 77.92 387.414 79.2C389.068 80.4267 391.121 81.04 393.574 81.04C396.134 81.04 398.108 80.56 399.494 79.6C400.934 78.5867 401.654 77.3067 401.654 75.76C401.654 74.1067 400.854 72.88 399.254 72.08C397.708 71.28 395.228 70.4 391.814 69.44C388.508 68.5333 385.814 67.6533 383.734 66.8C381.654 65.9467 379.841 64.64 378.294 62.88C376.801 61.12 376.054 58.8 376.054 55.92C376.054 53.5733 376.748 51.44 378.134 49.52C379.521 47.5467 381.494 46 384.054 44.88C386.668 43.76 389.654 43.2 393.014 43.2C398.028 43.2 402.054 44.48 405.094 47.04C408.188 49.5467 409.841 52.9867 410.054 57.36H400.934C400.774 55.3867 399.974 53.8133 398.534 52.64C397.094 51.4667 395.148 50.88 392.694 50.88C390.294 50.88 388.454 51.3333 387.174 52.24C385.894 53.1467 385.254 54.3467 385.254 55.84C385.254 57.0133 385.681 58 386.534 58.8C387.388 59.6 388.428 60.24 389.654 60.72C390.881 61.1467 392.694 61.7067 395.094 62.4C398.294 63.2533 400.908 64.1333 402.934 65.04C405.014 65.8933 406.801 67.1733 408.294 68.88C409.788 70.5867 410.561 72.8533 410.614 75.68C410.614 78.1867 409.921 80.4267 408.534 82.4C407.148 84.3733 405.174 85.92 402.614 87.04C400.108 88.16 397.148 88.72 393.734 88.72ZM453.989 76.64H430.709L426.709 88H417.189L437.109 32.32H447.669L467.589 88H457.989L453.989 76.64ZM451.429 69.2L442.389 43.36L433.269 69.2H451.429ZM485.37 32.4V88H476.25V32.4H485.37Z" fill="#1B1B1B"/>
<path d="M148.82 125.74H140.09L138.59 130H135.02L142.49 109.12H146.45L153.92 130H150.32L148.82 125.74ZM147.86 122.95L144.47 113.26L141.05 122.95H147.86ZM156.028 121.72C156.028 120.02 156.368 118.53 157.048 117.25C157.748 115.95 158.708 114.95 159.928 114.25C161.148 113.55 162.548 113.2 164.128 113.2C166.128 113.2 167.778 113.68 169.078 114.64C170.398 115.58 171.288 116.93 171.748 118.69H168.058C167.758 117.87 167.278 117.23 166.618 116.77C165.958 116.31 165.128 116.08 164.128 116.08C162.728 116.08 161.608 116.58 160.768 117.58C159.948 118.56 159.538 119.94 159.538 121.72C159.538 123.5 159.948 124.89 160.768 125.89C161.608 126.89 162.728 127.39 164.128 127.39C166.108 127.39 167.418 126.52 168.058 124.78H171.748C171.268 126.46 170.368 127.8 169.048 128.8C167.728 129.78 166.088 130.27 164.128 130.27C162.548 130.27 161.148 129.92 159.928 129.22C158.708 128.5 157.748 127.5 157.048 126.22C156.368 124.92 156.028 123.42 156.028 121.72ZM174.016 121.66C174.016 120 174.356 118.53 175.036 117.25C175.736 115.97 176.676 114.98 177.856 114.28C179.056 113.56 180.376 113.2 181.816 113.2C183.116 113.2 184.246 113.46 185.206 113.98C186.186 114.48 186.966 115.11 187.546 115.87V113.47H190.996V130H187.546V127.54C186.966 128.32 186.176 128.97 185.176 129.49C184.176 130.01 183.036 130.27 181.756 130.27C180.336 130.27 179.036 129.91 177.856 129.19C176.676 128.45 175.736 127.43 175.036 126.13C174.356 124.81 174.016 123.32 174.016 121.66ZM187.546 121.72C187.546 120.58 187.306 119.59 186.826 118.75C186.366 117.91 185.756 117.27 184.996 116.83C184.236 116.39 183.416 116.17 182.536 116.17C181.656 116.17 180.836 116.39 180.076 116.83C179.316 117.25 178.696 117.88 178.216 118.72C177.756 119.54 177.526 120.52 177.526 121.66C177.526 122.8 177.756 123.8 178.216 124.66C178.696 125.52 179.316 126.18 180.076 126.64C180.856 127.08 181.676 127.3 182.536 127.3C183.416 127.3 184.236 127.08 184.996 126.64C185.756 126.2 186.366 125.56 186.826 124.72C187.306 123.86 187.546 122.86 187.546 121.72ZM194.348 121.66C194.348 120 194.688 118.53 195.368 117.25C196.068 115.97 197.008 114.98 198.188 114.28C199.388 113.56 200.718 113.2 202.178 113.2C203.258 113.2 204.318 113.44 205.358 113.92C206.418 114.38 207.258 115 207.878 115.78V107.8H211.328V130H207.878V127.51C207.318 128.31 206.538 128.97 205.538 129.49C204.558 130.01 203.428 130.27 202.148 130.27C200.708 130.27 199.388 129.91 198.188 129.19C197.008 128.45 196.068 127.43 195.368 126.13C194.688 124.81 194.348 123.32 194.348 121.66ZM207.878 121.72C207.878 120.58 207.638 119.59 207.158 118.75C206.698 117.91 206.088 117.27 205.328 116.83C204.568 116.39 203.748 116.17 202.868 116.17C201.988 116.17 201.168 116.39 200.408 116.83C199.648 117.25 199.028 117.88 198.548 118.72C198.088 119.54 197.858 120.52 197.858 121.66C197.858 122.8 198.088 123.8 198.548 124.66C199.028 125.52 199.648 126.18 200.408 126.64C201.188 127.08 202.008 127.3 202.868 127.3C203.748 127.3 204.568 127.08 205.328 126.64C206.088 126.2 206.698 125.56 207.158 124.72C207.638 123.86 207.878 122.86 207.878 121.72ZM230.97 121.33C230.97 121.95 230.93 122.51 230.85 123.01H218.22C218.32 124.33 218.81 125.39 219.69 126.19C220.57 126.99 221.65 127.39 222.93 127.39C224.77 127.39 226.07 126.62 226.83 125.08H230.52C230.02 126.6 229.11 127.85 227.79 128.83C226.49 129.79 224.87 130.27 222.93 130.27C221.35 130.27 219.93 129.92 218.67 129.22C217.43 128.5 216.45 127.5 215.73 126.22C215.03 124.92 214.68 123.42 214.68 121.72C214.68 120.02 215.02 118.53 215.7 117.25C216.4 115.95 217.37 114.95 218.61 114.25C219.87 113.55 221.31 113.2 222.93 113.2C224.49 113.2 225.88 113.54 227.1 114.22C228.32 114.9 229.27 115.86 229.95 117.1C230.63 118.32 230.97 119.73 230.97 121.33ZM227.4 120.25C227.38 118.99 226.93 117.98 226.05 117.22C225.17 116.46 224.08 116.08 222.78 116.08C221.6 116.08 220.59 116.46 219.75 117.22C218.91 117.96 218.41 118.97 218.25 120.25H227.4ZM254.346 113.2C255.646 113.2 256.806 113.47 257.826 114.01C258.866 114.55 259.676 115.35 260.256 116.41C260.856 117.47 261.156 118.75 261.156 120.25V130H257.766V120.76C257.766 119.28 257.396 118.15 256.656 117.37C255.916 116.57 254.906 116.17 253.626 116.17C252.346 116.17 251.326 116.57 250.566 117.37C249.826 118.15 249.456 119.28 249.456 120.76V130H246.066V120.76C246.066 119.28 245.696 118.15 244.956 117.37C244.216 116.57 243.206 116.17 241.926 116.17C240.646 116.17 239.626 116.57 238.866 117.37C238.126 118.15 237.756 119.28 237.756 120.76V130H234.336V113.47H237.756V115.36C238.316 114.68 239.026 114.15 239.886 113.77C240.746 113.39 241.666 113.2 242.646 113.2C243.966 113.2 245.146 113.48 246.186 114.04C247.226 114.6 248.026 115.41 248.586 116.47C249.086 115.47 249.866 114.68 250.926 114.1C251.986 113.5 253.126 113.2 254.346 113.2ZM280.388 113.47L270.248 137.77H266.708L270.068 129.73L263.558 113.47H267.368L272.018 126.07L276.848 113.47H280.388Z" fill="#1B1B1B"/>
<g clip-path="url(#clip1_2099_20)">
<path d="M134.258 14.5096L118.89 25.9121L138.584 29.5792L145.61 23.1231L137.239 22.9794C137.103 23.1009 136.941 23.1903 136.765 23.2411C136.452 23.331 136.116 23.2928 135.831 23.135C135.547 22.9773 135.336 22.7128 135.246 22.3999C135.156 22.0869 135.195 21.7511 135.352 21.4662C135.51 21.1814 135.775 20.9709 136.087 20.8811L136.074 21.5715L137.562 21.5997C137.563 21.601 137.564 21.6023 137.564 21.6036L139.759 21.6414L152.26 21.878L152.517 22.7738C152.389 22.9275 152.301 23.1101 152.26 23.3057C152.218 23.5014 152.225 23.7041 152.28 23.8963C152.337 24.0928 152.442 24.272 152.585 24.4177C152.729 24.5634 152.906 24.671 153.102 24.7306C153.148 26.9148 154.469 31.5209 154.99 33.3365C156.39 33.7644 156.399 33.7924 157.35 32.659C156.829 30.8436 155.507 26.2388 154.387 24.3625C154.521 24.2081 154.615 24.0226 154.659 23.8228C154.703 23.6231 154.697 23.4154 154.64 23.2187C154.585 23.0264 154.484 22.8504 154.345 22.7062C154.206 22.562 154.034 22.454 153.844 22.3914L153.306 20.5166L148.544 20.4265L153.335 16.0241L134.258 14.5096ZM127.575 29.1523L128.274 35.2374C130.277 34.9357 132.908 35.3948 135.412 36.1122C136.836 36.5203 138.205 37.0239 139.354 37.5639C140.056 37.894 140.661 38.2305 141.17 38.5863C141.413 38.0146 141.747 37.4086 142.167 36.7563C142.855 35.6889 143.748 34.536 144.739 33.4348C146.481 31.4986 148.468 29.7136 150.326 28.907L147.691 23.3776L147.23 23.51L139.011 31.0635L128.036 29.02L127.575 29.1523Z" fill="#1B1B1B"/>
</g>
<defs>
<clipPath id="clip0_2099_20">
<rect width="67" height="67" fill="white" transform="translate(19 37)"/>
</clipPath>
<clipPath id="clip1_2099_20">
<rect width="39.2861" height="39.2861" fill="white" transform="translate(113.481 13.3208) rotate(-16.0172)"/>
</clipPath>
</defs>
</svg>
