<svg xmlns="http://www.w3.org/2000/svg" width="34" height="33" viewBox="0 0 34 33" fill="none">
  <g clip-path="url(#clip0_73012_167)">
    <path d="M29.6429 5.85431C28.2872 7.11262 26.628 9.46372 25.5413 13.8085C25.5413 13.8085 24.4487 17.4091 23.5623 19.2988C23.4382 19.5625 23.3216 19.8276 23.217 20.0986C23.0854 20.4399 22.8239 20.9892 22.3635 21.4858C22.0152 21.8594 21.5653 22.1362 21.0586 22.2432C20.3306 22.3955 19.2634 22.2827 18.5504 20.7168C18.507 20.6216 18.4622 20.5278 18.4128 20.4355C18.2305 20.1045 17.7073 19.0249 17.4024 17.0634C17.2992 16.3984 17.1602 15.7406 16.9674 15.0946L16.9495 15.0361C16.8314 14.6405 16.2634 14.6332 16.1378 15.0273C15.5937 16.7368 14.5594 20.2099 13.7671 24.1885C13.6132 24.9605 13.226 25.6797 12.6192 26.1939C12.5713 26.2349 12.522 26.2745 12.4697 26.314C12.4697 26.314 10.7193 27.5606 9.16629 25.5845C8.72982 25.0308 8.4503 24.3731 8.32026 23.686C8.09754 22.5098 7.25151 19.9375 4.08263 19.6518C4.08263 19.6518 6.04973 18.3496 8.41443 19.3984C8.41443 19.3984 10.525 20.3169 11.1244 22.5391C11.1244 22.5391 11.4802 20.8721 11.9136 19.29C12.1857 18.2983 12.4383 17.3022 12.673 16.3017C13.1603 14.226 14.1438 10.7191 15.4547 9.5399C15.51 9.49009 15.5683 9.44322 15.6251 9.39195C15.9031 9.13853 17.3561 7.97103 18.5877 9.91197C18.8493 10.3236 19.0242 10.7821 19.1288 11.2567C19.3067 12.0624 19.5219 13.5976 19.7432 14.8031C19.7432 14.8031 19.9046 15.9765 20.6864 18.1635C20.6864 18.1635 21.8837 15.5253 22.8493 11.9393C22.8493 11.9393 24.7267 6.13703 28.344 4.53594C25.3709 1.83327 21.3934 0.180908 17.0212 0.180908C7.824 0.180908 0.368164 7.48763 0.368164 16.5009C0.368164 25.5142 7.824 32.8209 17.0212 32.8209C26.2185 32.8209 33.6743 25.5142 33.6743 16.5009C33.6743 12.433 32.1556 8.71225 29.6429 5.85431Z" fill="white"/>
  </g>
  <defs>
    <clipPath id="clip0_73012_167">
      <rect width="33.3061" height="32.64" fill="white" transform="translate(0.368164 0.180908)"/>
    </clipPath>
  </defs>
</svg>